# xmcd CD database file
#
# Track frame offsets:
#	150
#	16029
#	26533
#	40950
#	51556
#	67062
#	82651
#	99982
#	116379
#	130129
#	143350
#	156027
#	171672
#	184410
#	208109
#
# Disc length: 3092 seconds
#
# Revision: 3
# Processed by: cddbd v1.5.1PL2 Copyright (c) Steve Scherf et al.
# Submitted via: CDex 1.60beta1
#
DISCID=c70c120f
DTITLE=Various Artist - 沙耶の唄 ORIGINAL SOUNDTRACK
DYEAR=2004
DGENRE=Game
TTITLE0=Nitroplus - SCHIZOPHRENIA
TTITLE1=Nitroplus - SABBATH
TTITLE2=Nitroplus - SEEK
TTITLE3=Nitroplus - SPOOKY SCAPE
TTITLE4=Nitroplus - SONG OF SAYA I
TTITLE5=Nitroplus - SONG OF SAYA II
TTITLE6=Nitroplus - SIN
TTITLE7=Nitroplus - SUNSET
TTITLE8=Nitroplus - SHAPESHIFT
TTITLE9=Nitroplus - SCARE SHADOW
TTITLE10=Nitroplus - SCREAM
TTITLE11=Nitroplus - SAVAGE
TTITLE12=Nitroplus - SILENT SORROW
TTITLE13=いとうかなこ - 沙耶の唄
TTITLE14=いとうかなこ - ガラスのくつ
EXTD=YEAR: 2004
EXTT0=
EXTT1=
EXTT2=
EXTT3=
EXTT4=
EXTT5=
EXTT6=
EXTT7=
EXTT8=
EXTT9=
EXTT10=
EXTT11=
EXTT12=
EXTT13=
EXTT14=
PLAYORDER=
